{
 "cells": [
  {
   "cell_type": "code",
   "execution_count": 1,
   "id": "cb100ec0",
   "metadata": {},
   "outputs": [
    {
     "name": "stdout",
     "output_type": "stream",
     "text": [
      "importing Jupyter notebook from GenerateBeizerCurve.ipynb\n"
     ]
    }
   ],
   "source": [
    "import import_ipynb\n",
    "import GenerateBeizerCurve"
   ]
  },
  {
   "cell_type": "code",
   "execution_count": 2,
   "id": "5e6e26ee",
   "metadata": {},
   "outputs": [],
   "source": [
    "COLOUR = '#2464b4' # Hex value of colour for graph output\n",
    "FIGSIZE_X = 20\n",
    "FIGSIZE_Y = 20\n",
    "DPI = 80"
   ]
  },
  {
   "cell_type": "code",
   "execution_count": 3,
   "id": "f0494fa0",
   "metadata": {},
   "outputs": [],
   "source": [
    "from PIL import Image\n",
    "\n",
    "def calculate_fig_size(file_name, multiplier):\n",
    "    \"\"\"\n",
    "    A function that calculates figure's size and set FIGSIZE_X and FIGSIZE_Y\n",
    "    :param file_name: the files' name to set ratio as. In this program it uses first frame for getting ratio.\n",
    "    :param multiplier: the multiplier for figsize from ratio \n",
    "                       (if width:height ratio was 2:1 and multiplier was 10, figsize will be 20, 10)\n",
    "    \"\"\"\n",
    "    im = Image.open(file_name)\n",
    "    width, height = im.size\n",
    "    global FIGSIZE_X\n",
    "    global FIGSIZE_Y\n",
    "    width_ratio = float(width) / height\n",
    "    FIGSIZE_X  = multiplier * width_ratio\n",
    "    FIGSIZE_Y = multiplier * 1\n",
    "    \n",
    "def set_fig_size():\n",
    "    \"\"\"\n",
    "    A function that sets figsize using pylab\n",
    "    \"\"\"\n",
    "    %pylab inline\n",
    "    pylab.rcParams['figure.figsize'] = (FIGSIZE_X, FIGSIZE_Y)"
   ]
  },
  {
   "cell_type": "code",
   "execution_count": 4,
   "id": "a7337021",
   "metadata": {},
   "outputs": [],
   "source": [
    "import matplotlib.path as mpath\n",
    "import matplotlib.patches as mpatches\n",
    "import matplotlib.pyplot as plt\n",
    "import os\n",
    "\n",
    "def process_frame(tmp_dir, curves, frame_name):\n",
    "    \"\"\"\n",
    "    A function that generates a pyplot using the bezier curves.\n",
    "    This function will generate pyplot and save it to tmp_dir\n",
    "    :param tmp_dir: the temporary directory to store frame pictures into\n",
    "    :param curves: the paths oof beizer curves\n",
    "    :param frame_count: the current frame's name to save picture into.\n",
    "    \"\"\"\n",
    "    Path = mpath.Path  # use mpath for drawing bezier curve\n",
    "    fig, ax = plt.subplots()\n",
    "    plt.title(\"Frame : \" + str(frame_name))  # show title as frames\n",
    "    patch_list = list()\n",
    "    plt.ioff()  # do not show plt\n",
    "    for curve in curves:\n",
    "        pp = mpatches.PathPatch(\n",
    "        Path(curve,[Path.MOVETO, Path.CURVE3, Path.CURVE3, Path.CLOSEPOLY]),\n",
    "        fc=\"none\", transform=ax.transData, color=COLOUR)\n",
    "        ax.add_patch(pp)  # draw all curves and add_patch to ax.\n",
    "        ax.plot([0], [0])\n",
    "    save_file_name = os.path.join(tmp_dir, \"%03d.png\" % frame_name)  # use %03d since we are using ffmpeg\n",
    "    try:  # try saving into the directory\n",
    "        plt.savefig(save_file_name, dpi=80)\n",
    "        plt.close(fig)  # close fig since we do not want it to be seen\n",
    "    except FileNotFoundError: # if it fails, generate tmp_directory for saving pictures\n",
    "        os.mkdir(tmp_dir)\n",
    "        plt.savefig(save_file_name)\n",
    "        plt.close(fig)  # close fig since we do not want it to be seen"
   ]
  },
  {
   "cell_type": "code",
   "execution_count": 5,
   "id": "94d88977",
   "metadata": {},
   "outputs": [],
   "source": [
    "from pathlib import Path\n",
    "\n",
    "def extract_frames(video_name, frame_dir):\n",
    "    \"\"\"\n",
    "    A function that extracts video frames into frame directory\n",
    "    :param video_name: a string that represents video's name\n",
    "    :param frame_dir: the directory to save frames into\n",
    "    \"\"\"\n",
    "    Path(frame_dir).mkdir(parents=True, exist_ok=True)\n",
    "    os.system(\"ffmpeg -i \" + video_name + \" \" + frame_dir + \"/frame%03d.png\")  # extract frames using ffmpeg"
   ]
  },
  {
   "cell_type": "code",
   "execution_count": 6,
   "id": "86c6923c",
   "metadata": {},
   "outputs": [],
   "source": [
    "\"\"\"\n",
    "Experimental feature!\n",
    "Using threads for generating pictures faster!\n",
    "\"\"\"\n",
    "\n",
    "def split(a, n):\n",
    "    \"\"\"\n",
    "    From https://stackoverflow.com/questions/2130016/splitting-a-list-into-n-parts-of-approximately-equal-length\n",
    "    \"\"\"\n",
    "    k, m = divmod(len(a), n)\n",
    "    return (a[i*k+min(i, m):(i+1)*k+min(i+1, m)] for i in range(n))\n",
    "\n",
    "def t_generate_pictures_segment(**kwargs):\n",
    "    \"\"\"\n",
    "    A function that generates pictures secgment.This function is meant to be called by thread\n",
    "    :param tmp_dir: the temporary directory to store frame pictures into\n",
    "    :param frame_dir: the directory to save frames into\n",
    "    :param files: the list that includes file's names\n",
    "    \"\"\"\n",
    "    tmp_dir = kwargs['tmp_dir']\n",
    "    frame_dir = kwargs['frame_dir']\n",
    "    files = kwargs['files']\n",
    "    for file in files:\n",
    "        file = file.decode('utf-8').replace(\".png\", \"\")\n",
    "        file = file.replace(\"frame\", \"\")\n",
    "        print(\"[+] Processing frame : \" + file)\n",
    "        cur_file = os.path.join(frame_dir, file)\n",
    "        curves = GenerateBeizerCurve.get_curve(cur_file)\n",
    "        process_frame(tmp_dir, curves, file)\n",
    "\n",
    "def t_generate_pictures(tmp_dir, frame_dir, thread_count):\n",
    "    \"\"\"\n",
    "    A function that generates pictures using multiple threads\n",
    "    :param tmp_dir: the temporary directory to store frame pictures into\n",
    "    :param frame_dir: the directory to save frames into\n",
    "    :param thread_count: the count of threads to generate\n",
    "    \"\"\"\n",
    "    print(\"[+] Using \" + str(thread_count) + \" threads...\")\n",
    "    directory = os.fsencode(frame_dir)\n",
    "    file_count = len(os.listdir(directory))\n",
    "    \n",
    "    thread_list = list()\n",
    "    file_list = list(split(os.listdir(directory), thread_count))\n",
    "    \n",
    "    for files in file_list:\n",
    "        t = threading.Thread(target=t_generate_pictures_segment, kwargs={'tmp_dir': tmp_dir,\n",
    "                                                                        'frame_dir': frame_dir,\n",
    "                                                                        'files': files})\n",
    "        thread_list.append(t)\n",
    "    for t in thread_list:\n",
    "        t.start()\n",
    "        \n",
    "    for t in thread_list:\n",
    "        t.join()\n",
    "    pass"
   ]
  },
  {
   "cell_type": "code",
   "execution_count": 7,
   "id": "19450aa7",
   "metadata": {},
   "outputs": [],
   "source": [
    "def generate_pictures(tmp_dir, frame_dir):   \n",
    "    \"\"\"\n",
    "    A function that generate pictures using process_frames and generates images by plt.\n",
    "    :param tmp_dir: the temporary directory to store frame pictures into\n",
    "    :param frame_dir: the directory to save frames into\n",
    "    \"\"\"\n",
    "    directory = os.fsencode(frame_dir)\n",
    "    files = os.listdir(directory)\n",
    "    file_count = len(files)\n",
    "\n",
    "    for i in range(1, file_count, 1):\n",
    "        print(\"[+] Processing frame : \" + str(i) + \" / \" + str(file_count))\n",
    "        cur_file = os.path.join(frame_dir + \"/\" + \"frame%03d.png\" % i)\n",
    "        curves = GenerateBeizerCurve.get_curve(cur_file)\n",
    "        process_frame(tmp_dir, curves, i)"
   ]
  },
  {
   "cell_type": "code",
   "execution_count": 8,
   "id": "032bed53",
   "metadata": {},
   "outputs": [],
   "source": [
    "def generate_video(video_name, tmp_dir, frame_dir, clean_up=True, flag_calculate_fig_size=True, multiplier=10\n",
    "                  ,thread_enabled=False, thread_count=4):\n",
    "    \"\"\"\n",
    "    A function that generates plot video out of a video using plt.\n",
    "    :param video_name: string that represents video's name\n",
    "    :param tmp_dir: the temporary directory to store frame pictures into\n",
    "    :param frame_dir: the directory to save frames into\n",
    "    :param clean_up: whether or not to clean up tmp_dir and frame_dir\n",
    "    :param flag_calculate_fig_size: whether or not to automatically calculate ratio and set figsize.\n",
    "    :param multiplier: the multiplier for figsize from ratio \n",
    "                       (if width:height ratio was 2:1 and multiplier was 10, figsize will be 20, 10)\n",
    "    :param thread_enabled: whether or not to use multiple threads\n",
    "    :param thread_count: the count of threads to generate\n",
    "    \"\"\"\n",
    "    print(\"[+] Extracting frames...\")\n",
    "    fig_list = extract_frames(video_name, frame_dir)\n",
    "    print(\"[+] Extracting frames done!\")\n",
    "    \n",
    "    if calculate_fig_size:\n",
    "        calculate_fig_size(frame_dir + \"/frame\" + \"%03d.png\" % 1, multiplier)\n",
    "    \n",
    "    set_fig_size()\n",
    "    \n",
    "    print(\"[+] Processing frames...\\n\")\n",
    "    if thread_enabled:\n",
    "        t_generate_pictures(tmp_dir, frame_dir, thread_count)\n",
    "    else: \n",
    "        generate_pictures(tmp_dir, frame_dir)\n",
    "    print(\"[+] Generating output.mp4...\")\n",
    "    os.system(\"ffmpeg -pattern_type glob -i \" + tmp_dir + \"/\\\"*.png\\\" output.mp4 -y\")\n",
    "    \n",
    "    if clean_up:\n",
    "        os.system(\"rm -rf \" + tmp_dir)  # This is OS dependent!\n",
    "        os.system(\"rm -rf \" + frame_dir)\n",
    "        print(\"[+] Cleaned up directories\")"
   ]
  },
  {
   "cell_type": "code",
   "execution_count": 9,
   "id": "a791e5e2",
   "metadata": {
    "scrolled": true
   },
   "outputs": [
    {
     "name": "stdout",
     "output_type": "stream",
     "text": [
      "[+] Extracting frames...\n"
     ]
    },
    {
     "name": "stderr",
     "output_type": "stream",
     "text": [
      "ffmpeg version 4.4.2-0ubuntu0.22.04.1 Copyright (c) 2000-2021 the FFmpeg developers\n",
      "  built with gcc 11 (Ubuntu 11.2.0-19ubuntu1)\n",
      "  configuration: --prefix=/usr --extra-version=0ubuntu0.22.04.1 --toolchain=hardened --libdir=/usr/lib/x86_64-linux-gnu --incdir=/usr/include/x86_64-linux-gnu --arch=amd64 --enable-gpl --disable-stripping --enable-gnutls --enable-ladspa --enable-libaom --enable-libass --enable-libbluray --enable-libbs2b --enable-libcaca --enable-libcdio --enable-libcodec2 --enable-libdav1d --enable-libflite --enable-libfontconfig --enable-libfreetype --enable-libfribidi --enable-libgme --enable-libgsm --enable-libjack --enable-libmp3lame --enable-libmysofa --enable-libopenjpeg --enable-libopenmpt --enable-libopus --enable-libpulse --enable-librabbitmq --enable-librubberband --enable-libshine --enable-libsnappy --enable-libsoxr --enable-libspeex --enable-libsrt --enable-libssh --enable-libtheora --enable-libtwolame --enable-libvidstab --enable-libvorbis --enable-libvpx --enable-libwebp --enable-libx265 --enable-libxml2 --enable-libxvid --enable-libzimg --enable-libzmq --enable-libzvbi --enable-lv2 --enable-omx --enable-openal --enable-opencl --enable-opengl --enable-sdl2 --enable-pocketsphinx --enable-librsvg --enable-libmfx --enable-libdc1394 --enable-libdrm --enable-libiec61883 --enable-chromaprint --enable-frei0r --enable-libx264 --enable-shared\n",
      "  libavutil      56. 70.100 / 56. 70.100\n",
      "  libavcodec     58.134.100 / 58.134.100\n",
      "  libavformat    58. 76.100 / 58. 76.100\n",
      "  libavdevice    58. 13.100 / 58. 13.100\n",
      "  libavfilter     7.110.100 /  7.110.100\n",
      "  libswscale      5.  9.100 /  5.  9.100\n",
      "  libswresample   3.  9.100 /  3.  9.100\n",
      "  libpostproc    55.  9.100 / 55.  9.100\n",
      "Input #0, mov,mp4,m4a,3gp,3g2,mj2, from 'nootnoot.mp4':\n",
      "  Metadata:\n",
      "    major_brand     : mp42\n",
      "    minor_version   : 0\n",
      "    compatible_brands: isommp42\n",
      "    creation_time   : 2022-05-03T05:00:44.000000Z\n",
      "  Duration: 00:00:09.64, start: 0.000000, bitrate: 217 kb/s\n",
      "  Stream #0:0(und): Video: h264 (Main) (avc1 / 0x31637661), yuv420p(tv, bt709), 1280x720 [SAR 1:1 DAR 16:9], 85 kb/s, 24 fps, 24 tbr, 12288 tbn, 48 tbc (default)\n",
      "    Metadata:\n",
      "      creation_time   : 2022-05-03T05:00:44.000000Z\n",
      "      handler_name    : ISO Media file produced by Google Inc. Created on: 05/02/2022.\n",
      "      vendor_id       : [0][0][0][0]\n",
      "  Stream #0:1(und): Audio: aac (LC) (mp4a / 0x6134706D), 44100 Hz, stereo, fltp, 128 kb/s (default)\n",
      "    Metadata:\n",
      "      creation_time   : 2022-05-03T05:00:44.000000Z\n",
      "      handler_name    : ISO Media file produced by Google Inc. Created on: 05/02/2022.\n",
      "      vendor_id       : [0][0][0][0]\n",
      "Stream mapping:\n",
      "  Stream #0:0 -> #0:0 (h264 (native) -> png (native))\n",
      "Press [q] to stop, [?] for help\n",
      "Output #0, image2, to '/home/gooday2die/projects/PltPics/frames/frame%03d.png':\n",
      "  Metadata:\n",
      "    major_brand     : mp42\n",
      "    minor_version   : 0\n",
      "    compatible_brands: isommp42\n",
      "    encoder         : Lavf58.76.100\n",
      "  Stream #0:0(und): Video: png, rgb24(pc, gbr/bt709/bt709, progressive), 1280x720 [SAR 1:1 DAR 16:9], q=2-31, 200 kb/s, 24 fps, 24 tbn (default)\n",
      "    Metadata:\n",
      "      creation_time   : 2022-05-03T05:00:44.000000Z\n",
      "      handler_name    : ISO Media file produced by Google Inc. Created on: 05/02/2022.\n",
      "      vendor_id       : [0][0][0][0]\n",
      "      encoder         : Lavc58.134.100 png\n",
      "frame=  231 fps=0.0 q=-0.0 Lsize=N/A time=00:00:09.62 bitrate=N/A speed=24.9x    \n",
      "video:33951kB audio:0kB subtitle:0kB other streams:0kB global headers:0kB muxing overhead: unknown\n",
      "/usr/lib/python3/dist-packages/IPython/core/magics/pylab.py:159: UserWarning: pylab import has clobbered these variables: ['split']\n",
      "`%matplotlib` prevents importing * from pylab and numpy\n",
      "  warn(\"pylab import has clobbered these variables: %s\"  % clobbered +\n"
     ]
    },
    {
     "name": "stdout",
     "output_type": "stream",
     "text": [
      "[+] Extracting frames done!\n",
      "Populating the interactive namespace from numpy and matplotlib\n",
      "[+] Processing frames...\n",
      "\n",
      "[+] Processing frame : 1 / 231\n",
      "[+] Processing frame : 2 / 231\n",
      "[+] Processing frame : 3 / 231\n",
      "[+] Processing frame : 4 / 231\n",
      "[+] Processing frame : 5 / 231\n",
      "[+] Processing frame : 6 / 231\n",
      "[+] Processing frame : 7 / 231\n",
      "[+] Processing frame : 8 / 231\n",
      "[+] Processing frame : 9 / 231\n",
      "[+] Processing frame : 10 / 231\n",
      "[+] Processing frame : 11 / 231\n",
      "[+] Processing frame : 12 / 231\n",
      "[+] Processing frame : 13 / 231\n",
      "[+] Processing frame : 14 / 231\n",
      "[+] Processing frame : 15 / 231\n",
      "[+] Processing frame : 16 / 231\n",
      "[+] Processing frame : 17 / 231\n",
      "[+] Processing frame : 18 / 231\n",
      "[+] Processing frame : 19 / 231\n",
      "[+] Processing frame : 20 / 231\n",
      "[+] Processing frame : 21 / 231\n",
      "[+] Processing frame : 22 / 231\n",
      "[+] Processing frame : 23 / 231\n",
      "[+] Processing frame : 24 / 231\n",
      "[+] Processing frame : 25 / 231\n",
      "[+] Processing frame : 26 / 231\n",
      "[+] Processing frame : 27 / 231\n",
      "[+] Processing frame : 28 / 231\n",
      "[+] Processing frame : 29 / 231\n",
      "[+] Processing frame : 30 / 231\n",
      "[+] Processing frame : 31 / 231\n",
      "[+] Processing frame : 32 / 231\n",
      "[+] Processing frame : 33 / 231\n",
      "[+] Processing frame : 34 / 231\n",
      "[+] Processing frame : 35 / 231\n",
      "[+] Processing frame : 36 / 231\n",
      "[+] Processing frame : 37 / 231\n",
      "[+] Processing frame : 38 / 231\n",
      "[+] Processing frame : 39 / 231\n",
      "[+] Processing frame : 40 / 231\n",
      "[+] Processing frame : 41 / 231\n",
      "[+] Processing frame : 42 / 231\n",
      "[+] Processing frame : 43 / 231\n",
      "[+] Processing frame : 44 / 231\n",
      "[+] Processing frame : 45 / 231\n",
      "[+] Processing frame : 46 / 231\n",
      "[+] Processing frame : 47 / 231\n",
      "[+] Processing frame : 48 / 231\n",
      "[+] Processing frame : 49 / 231\n",
      "[+] Processing frame : 50 / 231\n",
      "[+] Processing frame : 51 / 231\n",
      "[+] Processing frame : 52 / 231\n",
      "[+] Processing frame : 53 / 231\n",
      "[+] Processing frame : 54 / 231\n",
      "[+] Processing frame : 55 / 231\n",
      "[+] Processing frame : 56 / 231\n",
      "[+] Processing frame : 57 / 231\n",
      "[+] Processing frame : 58 / 231\n",
      "[+] Processing frame : 59 / 231\n",
      "[+] Processing frame : 60 / 231\n",
      "[+] Processing frame : 61 / 231\n",
      "[+] Processing frame : 62 / 231\n",
      "[+] Processing frame : 63 / 231\n",
      "[+] Processing frame : 64 / 231\n",
      "[+] Processing frame : 65 / 231\n",
      "[+] Processing frame : 66 / 231\n",
      "[+] Processing frame : 67 / 231\n",
      "[+] Processing frame : 68 / 231\n",
      "[+] Processing frame : 69 / 231\n",
      "[+] Processing frame : 70 / 231\n",
      "[+] Processing frame : 71 / 231\n",
      "[+] Processing frame : 72 / 231\n",
      "[+] Processing frame : 73 / 231\n",
      "[+] Processing frame : 74 / 231\n",
      "[+] Processing frame : 75 / 231\n",
      "[+] Processing frame : 76 / 231\n",
      "[+] Processing frame : 77 / 231\n",
      "[+] Processing frame : 78 / 231\n",
      "[+] Processing frame : 79 / 231\n",
      "[+] Processing frame : 80 / 231\n",
      "[+] Processing frame : 81 / 231\n",
      "[+] Processing frame : 82 / 231\n",
      "[+] Processing frame : 83 / 231\n",
      "[+] Processing frame : 84 / 231\n",
      "[+] Processing frame : 85 / 231\n",
      "[+] Processing frame : 86 / 231\n",
      "[+] Processing frame : 87 / 231\n",
      "[+] Processing frame : 88 / 231\n",
      "[+] Processing frame : 89 / 231\n",
      "[+] Processing frame : 90 / 231\n",
      "[+] Processing frame : 91 / 231\n",
      "[+] Processing frame : 92 / 231\n",
      "[+] Processing frame : 93 / 231\n",
      "[+] Processing frame : 94 / 231\n",
      "[+] Processing frame : 95 / 231\n",
      "[+] Processing frame : 96 / 231\n",
      "[+] Processing frame : 97 / 231\n",
      "[+] Processing frame : 98 / 231\n",
      "[+] Processing frame : 99 / 231\n",
      "[+] Processing frame : 100 / 231\n",
      "[+] Processing frame : 101 / 231\n",
      "[+] Processing frame : 102 / 231\n",
      "[+] Processing frame : 103 / 231\n",
      "[+] Processing frame : 104 / 231\n",
      "[+] Processing frame : 105 / 231\n",
      "[+] Processing frame : 106 / 231\n",
      "[+] Processing frame : 107 / 231\n",
      "[+] Processing frame : 108 / 231\n",
      "[+] Processing frame : 109 / 231\n",
      "[+] Processing frame : 110 / 231\n",
      "[+] Processing frame : 111 / 231\n",
      "[+] Processing frame : 112 / 231\n",
      "[+] Processing frame : 113 / 231\n",
      "[+] Processing frame : 114 / 231\n",
      "[+] Processing frame : 115 / 231\n",
      "[+] Processing frame : 116 / 231\n",
      "[+] Processing frame : 117 / 231\n",
      "[+] Processing frame : 118 / 231\n",
      "[+] Processing frame : 119 / 231\n",
      "[+] Processing frame : 120 / 231\n",
      "[+] Processing frame : 121 / 231\n",
      "[+] Processing frame : 122 / 231\n",
      "[+] Processing frame : 123 / 231\n",
      "[+] Processing frame : 124 / 231\n",
      "[+] Processing frame : 125 / 231\n",
      "[+] Processing frame : 126 / 231\n",
      "[+] Processing frame : 127 / 231\n",
      "[+] Processing frame : 128 / 231\n",
      "[+] Processing frame : 129 / 231\n",
      "[+] Processing frame : 130 / 231\n",
      "[+] Processing frame : 131 / 231\n",
      "[+] Processing frame : 132 / 231\n",
      "[+] Processing frame : 133 / 231\n",
      "[+] Processing frame : 134 / 231\n",
      "[+] Processing frame : 135 / 231\n",
      "[+] Processing frame : 136 / 231\n",
      "[+] Processing frame : 137 / 231\n",
      "[+] Processing frame : 138 / 231\n",
      "[+] Processing frame : 139 / 231\n",
      "[+] Processing frame : 140 / 231\n",
      "[+] Processing frame : 141 / 231\n",
      "[+] Processing frame : 142 / 231\n",
      "[+] Processing frame : 143 / 231\n",
      "[+] Processing frame : 144 / 231\n",
      "[+] Processing frame : 145 / 231\n",
      "[+] Processing frame : 146 / 231\n",
      "[+] Processing frame : 147 / 231\n",
      "[+] Processing frame : 148 / 231\n",
      "[+] Processing frame : 149 / 231\n",
      "[+] Processing frame : 150 / 231\n",
      "[+] Processing frame : 151 / 231\n",
      "[+] Processing frame : 152 / 231\n",
      "[+] Processing frame : 153 / 231\n",
      "[+] Processing frame : 154 / 231\n",
      "[+] Processing frame : 155 / 231\n",
      "[+] Processing frame : 156 / 231\n",
      "[+] Processing frame : 157 / 231\n",
      "[+] Processing frame : 158 / 231\n",
      "[+] Processing frame : 159 / 231\n",
      "[+] Processing frame : 160 / 231\n",
      "[+] Processing frame : 161 / 231\n",
      "[+] Processing frame : 162 / 231\n",
      "[+] Processing frame : 163 / 231\n",
      "[+] Processing frame : 164 / 231\n",
      "[+] Processing frame : 165 / 231\n",
      "[+] Processing frame : 166 / 231\n",
      "[+] Processing frame : 167 / 231\n",
      "[+] Processing frame : 168 / 231\n",
      "[+] Processing frame : 169 / 231\n",
      "[+] Processing frame : 170 / 231\n",
      "[+] Processing frame : 171 / 231\n",
      "[+] Processing frame : 172 / 231\n",
      "[+] Processing frame : 173 / 231\n",
      "[+] Processing frame : 174 / 231\n",
      "[+] Processing frame : 175 / 231\n",
      "[+] Processing frame : 176 / 231\n",
      "[+] Processing frame : 177 / 231\n",
      "[+] Processing frame : 178 / 231\n",
      "[+] Processing frame : 179 / 231\n",
      "[+] Processing frame : 180 / 231\n",
      "[+] Processing frame : 181 / 231\n",
      "[+] Processing frame : 182 / 231\n",
      "[+] Processing frame : 183 / 231\n",
      "[+] Processing frame : 184 / 231\n",
      "[+] Processing frame : 185 / 231\n",
      "[+] Processing frame : 186 / 231\n",
      "[+] Processing frame : 187 / 231\n",
      "[+] Processing frame : 188 / 231\n",
      "[+] Processing frame : 189 / 231\n",
      "[+] Processing frame : 190 / 231\n",
      "[+] Processing frame : 191 / 231\n",
      "[+] Processing frame : 192 / 231\n",
      "[+] Processing frame : 193 / 231\n",
      "[+] Processing frame : 194 / 231\n",
      "[+] Processing frame : 195 / 231\n",
      "[+] Processing frame : 196 / 231\n",
      "[+] Processing frame : 197 / 231\n",
      "[+] Processing frame : 198 / 231\n",
      "[+] Processing frame : 199 / 231\n",
      "[+] Processing frame : 200 / 231\n",
      "[+] Processing frame : 201 / 231\n",
      "[+] Processing frame : 202 / 231\n",
      "[+] Processing frame : 203 / 231\n",
      "[+] Processing frame : 204 / 231\n",
      "[+] Processing frame : 205 / 231\n",
      "[+] Processing frame : 206 / 231\n",
      "[+] Processing frame : 207 / 231\n",
      "[+] Processing frame : 208 / 231\n",
      "[+] Processing frame : 209 / 231\n",
      "[+] Processing frame : 210 / 231\n",
      "[+] Processing frame : 211 / 231\n",
      "[+] Processing frame : 212 / 231\n",
      "[+] Processing frame : 213 / 231\n",
      "[+] Processing frame : 214 / 231\n",
      "[+] Processing frame : 215 / 231\n",
      "[+] Processing frame : 216 / 231\n",
      "[+] Processing frame : 217 / 231\n",
      "[+] Processing frame : 218 / 231\n",
      "[+] Processing frame : 219 / 231\n",
      "[+] Processing frame : 220 / 231\n",
      "[+] Processing frame : 221 / 231\n",
      "[+] Processing frame : 222 / 231\n",
      "[+] Processing frame : 223 / 231\n",
      "[+] Processing frame : 224 / 231\n",
      "[+] Processing frame : 225 / 231\n",
      "[+] Processing frame : 226 / 231\n",
      "[+] Processing frame : 227 / 231\n",
      "[+] Processing frame : 228 / 231\n",
      "[+] Processing frame : 229 / 231\n",
      "[+] Processing frame : 230 / 231\n",
      "[+] Generating output.mp4...\n"
     ]
    },
    {
     "name": "stderr",
     "output_type": "stream",
     "text": [
      "ffmpeg version 4.4.2-0ubuntu0.22.04.1 Copyright (c) 2000-2021 the FFmpeg developers\n",
      "  built with gcc 11 (Ubuntu 11.2.0-19ubuntu1)\n",
      "  configuration: --prefix=/usr --extra-version=0ubuntu0.22.04.1 --toolchain=hardened --libdir=/usr/lib/x86_64-linux-gnu --incdir=/usr/include/x86_64-linux-gnu --arch=amd64 --enable-gpl --disable-stripping --enable-gnutls --enable-ladspa --enable-libaom --enable-libass --enable-libbluray --enable-libbs2b --enable-libcaca --enable-libcdio --enable-libcodec2 --enable-libdav1d --enable-libflite --enable-libfontconfig --enable-libfreetype --enable-libfribidi --enable-libgme --enable-libgsm --enable-libjack --enable-libmp3lame --enable-libmysofa --enable-libopenjpeg --enable-libopenmpt --enable-libopus --enable-libpulse --enable-librabbitmq --enable-librubberband --enable-libshine --enable-libsnappy --enable-libsoxr --enable-libspeex --enable-libsrt --enable-libssh --enable-libtheora --enable-libtwolame --enable-libvidstab --enable-libvorbis --enable-libvpx --enable-libwebp --enable-libx265 --enable-libxml2 --enable-libxvid --enable-libzimg --enable-libzmq --enable-libzvbi --enable-lv2 --enable-omx --enable-openal --enable-opencl --enable-opengl --enable-sdl2 --enable-pocketsphinx --enable-librsvg --enable-libmfx --enable-libdc1394 --enable-libdrm --enable-libiec61883 --enable-chromaprint --enable-frei0r --enable-libx264 --enable-shared\n",
      "  libavutil      56. 70.100 / 56. 70.100\n",
      "  libavcodec     58.134.100 / 58.134.100\n",
      "  libavformat    58. 76.100 / 58. 76.100\n",
      "  libavdevice    58. 13.100 / 58. 13.100\n",
      "  libavfilter     7.110.100 /  7.110.100\n",
      "  libswscale      5.  9.100 /  5.  9.100\n",
      "  libswresample   3.  9.100 /  3.  9.100\n",
      "  libpostproc    55.  9.100 / 55.  9.100\n",
      "Input #0, image2, from '/home/gooday2die/projects/PltPics/tmp_pics/*.png':\n",
      "  Duration: 00:00:09.20, start: 0.000000, bitrate: N/A\n",
      "  Stream #0:0: Video: png, rgba(pc), 1280x720 [SAR 2835:2835 DAR 16:9], 25 fps, 25 tbr, 25 tbn, 25 tbc\n",
      "Stream mapping:\n",
      "  Stream #0:0 -> #0:0 (png (native) -> h264 (libx264))\n",
      "Press [q] to stop, [?] for help\n",
      "[libx264 @ 0x55d68bbdfa00] using SAR=1/1\n",
      "[libx264 @ 0x55d68bbdfa00] using cpu capabilities: MMX2 SSE2Fast SSSE3 SSE4.2 AVX FMA3 BMI2 AVX2 AVX512\n",
      "[libx264 @ 0x55d68bbdfa00] profile High 4:4:4 Predictive, level 3.1, 4:4:4, 8-bit\n",
      "[libx264 @ 0x55d68bbdfa00] 264 - core 163 r3060 5db6aa6 - H.264/MPEG-4 AVC codec - Copyleft 2003-2021 - http://www.videolan.org/x264.html - options: cabac=1 ref=3 deblock=1:0:0 analyse=0x3:0x113 me=hex subme=7 psy=1 psy_rd=1.00:0.00 mixed_ref=1 me_range=16 chroma_me=1 trellis=1 8x8dct=1 cqm=0 deadzone=21,11 fast_pskip=1 chroma_qp_offset=4 threads=22 lookahead_threads=3 sliced_threads=0 nr=0 decimate=1 interlaced=0 bluray_compat=0 constrained_intra=0 bframes=3 b_pyramid=2 b_adapt=1 b_bias=0 direct=1 weightb=1 open_gop=0 weightp=2 keyint=250 keyint_min=25 scenecut=40 intra_refresh=0 rc_lookahead=40 rc=crf mbtree=1 crf=23.0 qcomp=0.60 qpmin=0 qpmax=69 qpstep=4 ip_ratio=1.40 aq=1:1.00\n",
      "Output #0, mp4, to 'output.mp4':\n",
      "  Metadata:\n",
      "    encoder         : Lavf58.76.100\n",
      "  Stream #0:0: Video: h264 (avc1 / 0x31637661), yuv444p(tv, progressive), 1280x720 [SAR 1:1 DAR 16:9], q=2-31, 25 fps, 12800 tbn\n",
      "    Metadata:\n",
      "      encoder         : Lavc58.134.100 libx264\n",
      "    Side data:\n",
      "      cpb: bitrate max/min/avg: 0/0/0 buffer size: 0 vbv_delay: N/A\n",
      "frame=  230 fps=146 q=-1.0 Lsize=    1116kB time=00:00:09.08 bitrate=1007.1kbits/s speed=5.78x    \n",
      "video:1113kB audio:0kB subtitle:0kB other streams:0kB global headers:0kB muxing overhead: 0.320251%\n",
      "[libx264 @ 0x55d68bbdfa00] frame I:2     Avg QP:17.32  size: 19353\n",
      "[libx264 @ 0x55d68bbdfa00] frame P:58    Avg QP:22.29  size:  7605\n",
      "[libx264 @ 0x55d68bbdfa00] frame B:170   Avg QP:29.90  size:  3876\n",
      "[libx264 @ 0x55d68bbdfa00] consecutive B-frames:  1.3%  0.0%  1.3% 97.4%\n",
      "[libx264 @ 0x55d68bbdfa00] mb I  I16..4: 17.3% 72.2% 10.4%\n",
      "[libx264 @ 0x55d68bbdfa00] mb P  I16..4:  1.2%  1.4%  1.5%  P16..4:  2.8%  2.8%  1.3%  0.0%  0.0%    skip:89.0%\n",
      "[libx264 @ 0x55d68bbdfa00] mb B  I16..4:  0.1%  0.4%  0.4%  B16..8:  6.1%  2.4%  0.9%  direct: 0.3%  skip:89.4%  L0:50.6% L1:42.1% BI: 7.2%\n",
      "[libx264 @ 0x55d68bbdfa00] 8x8 transform intra:50.0% inter:8.4%\n",
      "[libx264 @ 0x55d68bbdfa00] coded y,u,v intra: 19.7% 15.3% 13.8% inter: 2.2% 0.7% 0.5%\n",
      "[libx264 @ 0x55d68bbdfa00] i16 v,h,dc,p: 65% 32%  3%  0%\n",
      "[libx264 @ 0x55d68bbdfa00] i8 v,h,dc,ddl,ddr,vr,hd,vl,hu: 24%  4% 70%  0%  0%  0%  0%  0%  0%\n",
      "[libx264 @ 0x55d68bbdfa00] i4 v,h,dc,ddl,ddr,vr,hd,vl,hu: 19% 16% 34%  4%  6%  6%  6%  4%  3%\n",
      "[libx264 @ 0x55d68bbdfa00] Weighted P-Frames: Y:0.0% UV:0.0%\n",
      "[libx264 @ 0x55d68bbdfa00] ref P L0: 50.0%  4.9% 26.1% 19.0%\n",
      "[libx264 @ 0x55d68bbdfa00] ref B L0: 66.2% 26.0%  7.8%\n",
      "[libx264 @ 0x55d68bbdfa00] ref B L1: 85.3% 14.7%\n",
      "[libx264 @ 0x55d68bbdfa00] kb/s:990.20\n"
     ]
    }
   ],
   "source": [
    "if __name__ == \"__main__\":\n",
    "    tmp_dir = os.path.join(os.getcwd(), \"tmp_pics\")\n",
    "    frame_dir = os.path.join(os.getcwd(), \"frames\")\n",
    "    generate_video(\"nootnoot.mp4\", tmp_dir, frame_dir, clean_up=False, multiplier=10, thread_enabled=False, thread_count=0)"
   ]
  },
  {
   "cell_type": "code",
   "execution_count": 13,
   "id": "61c41672",
   "metadata": {},
   "outputs": [
    {
     "data": {
      "text/html": [
       "<video src=\"./output.mp4\" controls  >\n",
       "      Your browser does not support the <code>video</code> element.\n",
       "    </video>"
      ],
      "text/plain": [
       "<IPython.core.display.Video object>"
      ]
     },
     "execution_count": 13,
     "metadata": {},
     "output_type": "execute_result"
    }
   ],
   "source": [
    "from IPython.display import Video\n",
    "\n",
    "Video(\"./output.mp4\")"
   ]
  },
  {
   "cell_type": "code",
   "execution_count": null,
   "id": "1ee9578f",
   "metadata": {},
   "outputs": [],
   "source": []
  }
 ],
 "metadata": {
  "kernelspec": {
   "display_name": "Python 3 (ipykernel)",
   "language": "python",
   "name": "python3"
  },
  "language_info": {
   "codemirror_mode": {
    "name": "ipython",
    "version": 3
   },
   "file_extension": ".py",
   "mimetype": "text/x-python",
   "name": "python",
   "nbconvert_exporter": "python",
   "pygments_lexer": "ipython3",
   "version": "3.10.4"
  }
 },
 "nbformat": 4,
 "nbformat_minor": 5
}
